<svg width="20" height="20" viewBox="0 0 20 20" fill="none" xmlns="http://www.w3.org/2000/svg">
<path d="M9.99996 1.6665C10.4602 1.6665 10.8333 2.0396 10.8333 2.49984V4.99984C10.8333 5.46007 10.4602 5.83317 9.99996 5.83317C9.53971 5.83317 9.16663 5.46007 9.16663 4.99984V2.49984C9.16663 2.0396 9.53971 1.6665 9.99996 1.6665ZM9.99996 14.1665C10.4602 14.1665 10.8333 14.5396 10.8333 14.9998V17.4998C10.8333 17.9601 10.4602 18.3332 9.99996 18.3332C9.53971 18.3332 9.16663 17.9601 9.16663 17.4998V14.9998C9.16663 14.5396 9.53971 14.1665 9.99996 14.1665ZM18.3333 9.99984C18.3333 10.4601 17.9602 10.8332 17.5 10.8332H15C14.5397 10.8332 14.1666 10.4601 14.1666 9.99984C14.1666 9.53959 14.5397 9.1665 15 9.1665H17.5C17.9602 9.1665 18.3333 9.53959 18.3333 9.99984ZM5.83329 9.99984C5.83329 10.4601 5.46019 10.8332 4.99996 10.8332H2.49996C2.03973 10.8332 1.66663 10.4601 1.66663 9.99984C1.66663 9.53959 2.03973 9.1665 2.49996 9.1665H4.99996C5.46019 9.1665 5.83329 9.53959 5.83329 9.99984ZM15.8925 15.8924C15.567 16.2178 15.0395 16.2178 14.714 15.8924L12.9462 14.1246C12.6208 13.7992 12.6208 13.2716 12.9462 12.9461C13.2717 12.6207 13.7993 12.6207 14.1247 12.9461L15.8925 14.7139C16.218 15.0393 16.218 15.5669 15.8925 15.8924ZM7.05368 7.05356C6.72824 7.379 6.20061 7.379 5.87517 7.05356L4.1074 5.2858C3.78197 4.96035 3.78197 4.43272 4.1074 4.10728C4.43284 3.78185 4.96048 3.78185 5.28592 4.10728L7.05368 5.87505C7.37912 6.20049 7.37912 6.72812 7.05368 7.05356ZM4.1074 15.8924C3.78197 15.5669 3.78197 15.0393 4.1074 14.7139L5.87517 12.9461C6.20061 12.6207 6.72824 12.6207 7.05368 12.9461C7.37912 13.2716 7.37912 13.7992 7.05368 14.1246L5.28592 15.8924C4.96048 16.2178 4.43284 16.2178 4.1074 15.8924ZM12.9462 7.05356C12.6208 6.72812 12.6208 6.20049 12.9462 5.87505L14.714 4.10728C15.0395 3.78185 15.567 3.78185 15.8925 4.10728C16.218 4.43272 16.218 4.96035 15.8925 5.2858L14.1247 7.05356C13.7993 7.379 13.2717 7.379 12.9462 7.05356Z" fill="#F4EA5A"/>
</svg>
