<?xml version="1.0" encoding="utf-8"?>
<!-- Generator: Adobe Illustrator 27.9.0, SVG Export Plug-In . SVG Version: 6.00 Build 0)  -->
<svg version="1.1" id="圖層_1" xmlns="http://www.w3.org/2000/svg" xmlns:xlink="http://www.w3.org/1999/xlink" x="0px" y="0px"
	 viewBox="0 0 36 72" style="enable-background:new 0 0 36 72;" xml:space="preserve">
<style type="text/css">
	.st0{fill:#FFFFFF;}
	.st1{fill:#F4EA5A;}
</style>
<path class="st0" d="M18,23.3c1.1,0,2.1-0.3,3-0.9c0.9-0.6,1.6-1.4,2-2.4c0.4-1,0.5-2,0.3-3.1c-0.2-1-0.7-2-1.5-2.7
	C21,13.5,20.1,13,19,12.8c-1-0.2-2.1-0.1-3.1,0.3c-1,0.4-1.8,1.1-2.4,2c-0.6,0.9-0.9,1.9-0.9,3c0,1.4,0.6,2.8,1.6,3.8
	C15.2,22.8,16.6,23.3,18,23.3z M18,15.3c0.5,0,1,0.2,1.5,0.4c0.4,0.3,0.8,0.7,1,1.2c0.2,0.5,0.3,1,0.2,1.5c-0.1,0.5-0.4,1-0.7,1.4
	c-0.4,0.4-0.8,0.6-1.4,0.7c-0.5,0.1-1.1,0.1-1.5-0.2c-0.5-0.2-0.9-0.5-1.2-1c-0.3-0.4-0.4-1-0.4-1.5c0-0.7,0.3-1.4,0.8-1.9
	C16.6,15.6,17.3,15.3,18,15.3z M6.7,19.2l-1.3,0.8c-0.3,0.2-0.6,0.4-0.8,0.7c-0.2,0.3-0.4,0.6-0.5,0.9C4,21.9,4,22.3,4,22.6
	c0,0.3,0.2,0.7,0.3,1l2,3.4c0.2,0.3,0.4,0.6,0.7,0.8C7.3,28,7.6,28.2,8,28.3c0.3,0.1,0.7,0.1,1,0.1c0.3,0,0.7-0.2,1-0.3l1.3-0.8
	c0.2-0.1,0.4-0.2,0.7-0.2c0.2,0,0.5,0.1,0.7,0.2c0.2,0.1,0.4,0.3,0.5,0.5c0.1,0.2,0.2,0.4,0.2,0.7V30c0,0.7,0.3,1.4,0.8,1.9
	c0.5,0.5,1.2,0.8,1.9,0.8h4c0.7,0,1.4-0.3,1.9-0.8c0.5-0.5,0.8-1.2,0.8-1.9v-1.6c0-0.2,0.1-0.5,0.2-0.7c0.1-0.2,0.3-0.4,0.5-0.5
	c0.2-0.1,0.4-0.2,0.7-0.2c0.2,0,0.5,0.1,0.7,0.2L26,28c0.6,0.4,1.3,0.4,2,0.3c0.7-0.2,1.3-0.6,1.6-1.2l2-3.4c0.2-0.3,0.3-0.6,0.3-1
	c0-0.3,0-0.7-0.1-1c-0.1-0.3-0.2-0.7-0.5-0.9c-0.2-0.3-0.5-0.5-0.8-0.7l-1.3-0.8c-0.2-0.1-0.4-0.3-0.5-0.5c-0.1-0.2-0.2-0.4-0.2-0.7
	c0-0.2,0.1-0.5,0.2-0.7c0.1-0.2,0.3-0.4,0.5-0.5l1.3-0.8c0.3-0.2,0.6-0.4,0.8-0.7c0.2-0.3,0.4-0.6,0.5-0.9c0.1-0.3,0.1-0.7,0.1-1
	c0-0.3-0.2-0.7-0.3-1l-2-3.4c-0.2-0.3-0.4-0.6-0.7-0.8C28.7,8,28.4,7.8,28,7.7c-0.3-0.1-0.7-0.1-1-0.1c-0.3,0-0.7,0.2-1,0.3
	l-1.3,0.8c-0.2,0.1-0.4,0.2-0.7,0.2c-0.2,0-0.5-0.1-0.7-0.2c-0.2-0.1-0.4-0.3-0.5-0.5c-0.1-0.2-0.2-0.4-0.2-0.7V6
	c0-0.7-0.3-1.4-0.8-1.9c-0.5-0.5-1.2-0.8-1.9-0.8h-4c-0.7,0-1.4,0.3-1.9,0.8S13.3,5.3,13.3,6v1.7c0,0.2-0.1,0.4-0.2,0.6
	c-0.1,0.2-0.2,0.3-0.4,0.4l-0.2,0.1C12.4,8.9,12.2,9,12,9c-0.2,0-0.4-0.1-0.6-0.2L10,8C9.7,7.8,9.3,7.7,9,7.7c-0.3,0-0.7,0-1,0.1
	C7.6,7.8,7.3,8,7,8.2C6.8,8.4,6.5,8.7,6.3,9l-2,3.4c-0.4,0.6-0.4,1.3-0.3,2c0.2,0.7,0.6,1.3,1.2,1.6l1.3,0.8C6.9,17,7,17.1,7.2,17.3
	c0.1,0.2,0.2,0.4,0.2,0.7c0,0.2-0.1,0.5-0.2,0.7C7,18.9,6.9,19.1,6.7,19.2z M8,14.5l-1.3-0.8l2-3.4l1.4,0.8c0.6,0.3,1.2,0.5,1.9,0.5
	c0.7,0,1.3-0.2,1.9-0.5l0.2-0.1c0.6-0.3,1.1-0.8,1.4-1.4C15.8,9.1,16,8.4,16,7.7V6h4v1.6c0,0.7,0.2,1.4,0.5,2
	c0.4,0.6,0.9,1.1,1.5,1.5c0.6,0.4,1.3,0.5,2,0.5c0.7,0,1.4-0.2,2-0.5l1.3-0.8l2,3.4L28,14.5c-0.6,0.4-1.1,0.9-1.5,1.5
	c-0.3,0.6-0.5,1.3-0.5,2c0,0.7,0.2,1.4,0.5,2c0.3,0.6,0.9,1.1,1.5,1.5l1.3,0.8l-2,3.4L26,24.9c-0.6-0.3-1.3-0.5-2-0.5
	c-0.7,0-1.4,0.2-2,0.5c-0.6,0.4-1.1,0.9-1.5,1.5c-0.4,0.6-0.5,1.3-0.5,2V30h-4v-1.6c0-0.7-0.2-1.4-0.5-2c-0.4-0.6-0.9-1.1-1.5-1.5
	c-0.6-0.4-1.3-0.5-2-0.5c-0.7,0-1.4,0.2-2,0.5l-1.3,0.8l-2-3.4L8,21.5c0.6-0.4,1.1-0.9,1.5-1.5c0.3-0.6,0.5-1.3,0.5-2
	c0-0.7-0.2-1.4-0.5-2C9.1,15.4,8.6,14.9,8,14.5z"/>
<path class="st1" d="M18,59.3c1.1,0,2.1-0.3,3-0.9c0.9-0.6,1.6-1.4,2-2.4c0.4-1,0.5-2,0.3-3.1c-0.2-1-0.7-2-1.5-2.7
	C21,49.5,20.1,49,19,48.8c-1-0.2-2.1-0.1-3.1,0.3c-1,0.4-1.8,1.1-2.4,2c-0.6,0.9-0.9,1.9-0.9,3c0,1.4,0.6,2.8,1.6,3.8
	C15.2,58.8,16.6,59.3,18,59.3z M18,51.3c0.5,0,1,0.2,1.5,0.4c0.4,0.3,0.8,0.7,1,1.2c0.2,0.5,0.3,1,0.2,1.5c-0.1,0.5-0.4,1-0.7,1.4
	c-0.4,0.4-0.8,0.6-1.4,0.7c-0.5,0.1-1.1,0.1-1.5-0.2c-0.5-0.2-0.9-0.5-1.2-1c-0.3-0.4-0.4-1-0.4-1.5c0-0.7,0.3-1.4,0.8-1.9
	C16.6,51.6,17.3,51.3,18,51.3z M6.7,55.2l-1.3,0.8c-0.3,0.2-0.6,0.4-0.8,0.7c-0.2,0.3-0.4,0.6-0.5,0.9C4,57.9,4,58.3,4,58.6
	c0,0.3,0.2,0.7,0.3,1l2,3.4c0.2,0.3,0.4,0.6,0.7,0.8C7.3,64,7.6,64.2,8,64.3c0.3,0.1,0.7,0.1,1,0.1c0.3,0,0.7-0.2,1-0.3l1.3-0.8
	c0.2-0.1,0.4-0.2,0.7-0.2c0.2,0,0.5,0.1,0.7,0.2c0.2,0.1,0.4,0.3,0.5,0.5c0.1,0.2,0.2,0.4,0.2,0.7V66c0,0.7,0.3,1.4,0.8,1.9
	c0.5,0.5,1.2,0.8,1.9,0.8h4c0.7,0,1.4-0.3,1.9-0.8c0.5-0.5,0.8-1.2,0.8-1.9v-1.6c0-0.2,0.1-0.5,0.2-0.7c0.1-0.2,0.3-0.4,0.5-0.5
	c0.2-0.1,0.4-0.2,0.7-0.2c0.2,0,0.5,0.1,0.7,0.2L26,64c0.6,0.4,1.3,0.4,2,0.3c0.7-0.2,1.3-0.6,1.6-1.2l2-3.4c0.2-0.3,0.3-0.6,0.3-1
	c0-0.3,0-0.7-0.1-1c-0.1-0.3-0.2-0.7-0.5-0.9c-0.2-0.3-0.5-0.5-0.8-0.7l-1.3-0.8c-0.2-0.1-0.4-0.3-0.5-0.5c-0.1-0.2-0.2-0.4-0.2-0.7
	c0-0.2,0.1-0.5,0.2-0.7c0.1-0.2,0.3-0.4,0.5-0.5l1.3-0.8c0.3-0.2,0.6-0.4,0.8-0.7c0.2-0.3,0.4-0.6,0.5-0.9c0.1-0.3,0.1-0.7,0.1-1
	c0-0.3-0.2-0.7-0.3-1l-2-3.4c-0.2-0.3-0.4-0.6-0.7-0.8c-0.3-0.2-0.6-0.4-0.9-0.5c-0.3-0.1-0.7-0.1-1-0.1c-0.3,0-0.7,0.2-1,0.3
	l-1.3,0.8c-0.2,0.1-0.4,0.2-0.7,0.2c-0.2,0-0.5-0.1-0.7-0.2c-0.2-0.1-0.4-0.3-0.5-0.5c-0.1-0.2-0.2-0.4-0.2-0.7V42
	c0-0.7-0.3-1.4-0.8-1.9c-0.5-0.5-1.2-0.8-1.9-0.8h-4c-0.7,0-1.4,0.3-1.9,0.8s-0.8,1.2-0.8,1.9v1.7c0,0.2-0.1,0.4-0.2,0.6
	c-0.1,0.2-0.2,0.3-0.4,0.4l-0.2,0.1C12.4,44.9,12.2,45,12,45c-0.2,0-0.4-0.1-0.6-0.2L10,44c-0.3-0.2-0.6-0.3-1-0.3
	c-0.3,0-0.7,0-1,0.1C7.6,43.8,7.3,44,7,44.2c-0.3,0.2-0.5,0.5-0.7,0.8l-2,3.4c-0.4,0.6-0.4,1.3-0.3,2c0.2,0.7,0.6,1.3,1.2,1.6
	l1.3,0.8C6.9,53,7,53.1,7.2,53.3c0.1,0.2,0.2,0.4,0.2,0.7c0,0.2-0.1,0.5-0.2,0.7C7,54.9,6.9,55.1,6.7,55.2z M8,50.5l-1.3-0.8l2-3.4
	l1.4,0.8c0.6,0.3,1.2,0.5,1.9,0.5c0.7,0,1.3-0.2,1.9-0.5l0.2-0.1c0.6-0.3,1.1-0.8,1.4-1.4c0.3-0.6,0.5-1.2,0.5-1.9V42h4v1.6
	c0,0.7,0.2,1.4,0.5,2c0.4,0.6,0.9,1.1,1.5,1.5c0.6,0.4,1.3,0.5,2,0.5c0.7,0,1.4-0.2,2-0.5l1.3-0.8l2,3.4L28,50.5
	c-0.6,0.4-1.1,0.9-1.5,1.5c-0.3,0.6-0.5,1.3-0.5,2c0,0.7,0.2,1.4,0.5,2c0.3,0.6,0.9,1.1,1.5,1.5l1.3,0.8l-2,3.4L26,60.9
	c-0.6-0.3-1.3-0.5-2-0.5c-0.7,0-1.4,0.2-2,0.5c-0.6,0.4-1.1,0.9-1.5,1.5c-0.4,0.6-0.5,1.3-0.5,2V66h-4v-1.6c0-0.7-0.2-1.4-0.5-2
	c-0.4-0.6-0.9-1.1-1.5-1.5c-0.6-0.4-1.3-0.5-2-0.5c-0.7,0-1.4,0.2-2,0.5l-1.3,0.8l-2-3.4L8,57.5c0.6-0.4,1.1-0.9,1.5-1.5
	c0.3-0.6,0.5-1.3,0.5-2c0-0.7-0.2-1.4-0.5-2C9.1,51.4,8.6,50.9,8,50.5z"/>
</svg>
