<svg width="20" height="20" viewBox="0 0 20 20" fill="none" xmlns="http://www.w3.org/2000/svg">
<path d="M10 1.6665C10.4603 1.6665 10.8334 2.0396 10.8334 2.49984V4.99984C10.8334 5.46007 10.4603 5.83317 10 5.83317C9.53977 5.83317 9.16669 5.46007 9.16669 4.99984V2.49984C9.16669 2.0396 9.53977 1.6665 10 1.6665ZM10 14.1665C10.4603 14.1665 10.8334 14.5396 10.8334 14.9998V17.4998C10.8334 17.9601 10.4603 18.3332 10 18.3332C9.53977 18.3332 9.16669 17.9601 9.16669 17.4998V14.9998C9.16669 14.5396 9.53977 14.1665 10 14.1665ZM18.3334 9.99984C18.3334 10.4601 17.9603 10.8332 17.5 10.8332H15C14.5398 10.8332 14.1667 10.4601 14.1667 9.99984C14.1667 9.53959 14.5398 9.1665 15 9.1665H17.5C17.9603 9.1665 18.3334 9.53959 18.3334 9.99984ZM5.83335 9.99984C5.83335 10.4601 5.46025 10.8332 5.00002 10.8332H2.50002C2.03979 10.8332 1.66669 10.4601 1.66669 9.99984C1.66669 9.53959 2.03979 9.1665 2.50002 9.1665H5.00002C5.46025 9.1665 5.83335 9.53959 5.83335 9.99984ZM15.8926 15.8924C15.5671 16.2178 15.0395 16.2178 14.7141 15.8924L12.9463 14.1246C12.6209 13.7992 12.6209 13.2716 12.9463 12.9461C13.2718 12.6207 13.7994 12.6207 14.1248 12.9461L15.8926 14.7139C16.218 15.0393 16.218 15.5669 15.8926 15.8924ZM7.05375 7.05356C6.7283 7.379 6.20067 7.379 5.87523 7.05356L4.10746 5.2858C3.78203 4.96035 3.78203 4.43272 4.10746 4.10728C4.4329 3.78185 4.96054 3.78185 5.28598 4.10728L7.05375 5.87505C7.37918 6.20049 7.37918 6.72812 7.05375 7.05356ZM4.10746 15.8924C3.78203 15.5669 3.78203 15.0393 4.10746 14.7139L5.87523 12.9461C6.20067 12.6207 6.7283 12.6207 7.05375 12.9461C7.37918 13.2716 7.37918 13.7992 7.05375 14.1246L5.28598 15.8924C4.96054 16.2178 4.4329 16.2178 4.10746 15.8924ZM12.9463 7.05356C12.6209 6.72812 12.6209 6.20049 12.9463 5.87505L14.7141 4.10728C15.0395 3.78185 15.5671 3.78185 15.8926 4.10728C16.218 4.43272 16.218 4.96035 15.8926 5.2858L14.1248 7.05356C13.7994 7.379 13.2718 7.379 12.9463 7.05356Z" fill="#FF004F"/>
</svg>
