<?xml version="1.0" encoding="utf-8"?>
<!-- Generator: Adobe Illustrator 27.9.0, SVG Export Plug-In . SVG Version: 6.00 Build 0)  -->
<svg version="1.1" id="圖層_1" xmlns="http://www.w3.org/2000/svg" xmlns:xlink="http://www.w3.org/1999/xlink" x="0px" y="0px"
	 viewBox="0 0 75 52" style="enable-background:new 0 0 75 52;" xml:space="preserve">
<style type="text/css">
	.st0{fill:#FFD526;}
	.st1{fill:#1F89FE;}
	.st2{fill:#FFFFFF;}
</style>
<g>
	<path class="st0" d="M8.1,6.1h58.9c4.5,0,8.1,3.6,8.1,8.1v23.6c0,4.5-3.6,8.1-8.1,8.1H8.1c-4.5,0-8.1-3.6-8.1-8.1V14.2
		C0,9.8,3.6,6.1,8.1,6.1z"/>
	<path d="M36.2,31.2c-6.9,0-7.1,10.4,0,10.4C43.3,41.7,43.1,31.2,36.2,31.2z M36.2,40.2c-5-0.1-5-7.6,0-7.7
		C41.2,32.7,41.2,40.2,36.2,40.2z"/>
	<path d="M52.7,17.1c-0.4,0-0.7,0.3-0.7,0.7V23c-0.8-1-2.1-1.8-3.8-1.8c-3.4,0-5.2,2.6-5.2,5.2c0,2.6,1.8,5.2,5.2,5.2
		c1.7,0,3-0.7,3.8-1.8v0.9c0,0.4,0.3,0.7,0.7,0.7c0.4,0,0.7-0.3,0.7-0.7v-13C53.4,17.4,53.1,17.1,52.7,17.1z M48.2,30.3
		c-2.5-0.1-3.8-2-3.8-3.9s1.3-3.8,3.8-3.9c2.5,0.1,3.8,2,3.8,3.9C52,28.4,50.7,30.3,48.2,30.3z"/>
	<path d="M66.7,9.3C66.4,9.3,66,9.6,66,10v0.9c-0.8-1-2.1-1.7-3.8-1.7c-3.4-0.1-5.2,2.6-5.2,5.2c0,2.6,1.8,5.2,5.2,5.2
		c1.7,0,2.9-0.7,3.8-1.7v0.9c0,0.4,0.3,0.7,0.7,0.7c0.4,0,0.7-0.3,0.7-0.7V10C67.5,9.6,67.2,9.3,66.7,9.3z M62.2,18.2
		c-2.5-0.1-3.8-2-3.8-3.9s1.3-3.8,3.8-3.9c2.5,0.1,3.8,2,3.8,3.9S64.8,18.1,62.2,18.2z"/>
	<path d="M20.3,31.3c-2.2,0-3.7,1-4.5,2.5c-0.8-1.4-2.3-2.5-4.5-2.5c-1.6,0-2.9,0.7-3.8,1.8v-0.9c0-0.4-0.3-0.7-0.7-0.7
		c-0.4,0-0.7,0.3-0.7,0.7v3.4v0.9V41c0,0.4,0.3,0.7,0.7,0.7c0.4,0,0.7-0.3,0.7-0.7c0-0.9-0.1-4.3,0.1-5.5c0.1-0.2,0.1-0.4,0.1-0.6
		c0.6-1.3,1.8-2.1,3.6-2.1c2.5,0.1,3.8,2,3.8,3.9V41c0,0.4,0.3,0.7,0.7,0.7c0.4,0,0.7-0.3,0.7-0.7v-4.4c0-1.9,1.3-3.8,3.8-3.9
		c1.7,0,2.7,0.8,3.3,1.8c0.3,0.6,0.5,1.5,0.5,2.5v1V41c0,0.4,0.3,0.7,0.7,0.7c0.4,0,0.7-0.3,0.7-0.7v-2.9v-1.5
		C25.5,33.6,23.5,31.4,20.3,31.3z"/>
	<polygon class="st1" points="61.9,45.9 75,32.8 75,21.4 50.5,45.9 	"/>
	<path class="st2" d="M58.3,39.5c0.4-0.4,0.7-0.6,1-0.8c0.3-0.2,0.6-0.3,0.9-0.2c0.3,0,0.5,0.2,0.8,0.4c0.2,0.2,0.3,0.3,0.3,0.5
		c0.1,0.2,0.1,0.3,0.1,0.5c0,0.2-0.1,0.3-0.2,0.5l0,0c0.2-0.1,0.3-0.2,0.5-0.2c0.2,0,0.4,0,0.6,0c0.2,0.1,0.4,0.2,0.6,0.4
		c0.2,0.2,0.4,0.5,0.5,0.8c0.1,0.3,0,0.6-0.1,0.9c-0.1,0.3-0.4,0.6-0.7,0.9l-1.5,1.5l-4.1-4.1L58.3,39.5z M60,41
		c0.3-0.3,0.4-0.5,0.4-0.6c0-0.2,0-0.3-0.2-0.5c-0.2-0.2-0.3-0.2-0.5-0.2c-0.2,0-0.4,0.2-0.6,0.4l-0.5,0.5l0.9,0.9L60,41z
		 M60.2,42.2l1.1,1.1l0.6-0.6c0.3-0.3,0.4-0.5,0.4-0.7c0-0.2-0.1-0.4-0.3-0.6c-0.1-0.1-0.2-0.2-0.3-0.2c-0.1,0-0.3,0-0.4,0
		c-0.1,0.1-0.3,0.2-0.5,0.4L60.2,42.2z M67.3,38.7L65,41l-4.1-4.1l2.3-2.3l0.7,0.7l-1.5,1.5l0.9,0.9l1.4-1.4l0.7,0.7l-1.4,1.4l1,1
		l1.5-1.5L67.3,38.7z M69.7,36.2l-0.9,0.9l-3.4-3.4l-1.1,1.1l-0.7-0.7l3.1-3.1l0.7,0.7l-1.1,1.1L69.7,36.2z M73.5,32.4l-1.3-0.7
		l-1.5,1.5l0.7,1.3l-0.9,0.9l-2.7-5.5l1.1-1.1l5.5,2.6L73.5,32.4z M70.1,30.6c-0.1,0-0.2-0.1-0.3-0.2c-0.1-0.1-0.3-0.1-0.4-0.2
		c-0.1-0.1-0.2-0.1-0.3-0.2c0.1,0.1,0.1,0.2,0.2,0.4c0.1,0.1,0.2,0.3,0.2,0.4c0.1,0.1,0.1,0.2,0.1,0.3l0.7,1.2l1.1-1.1L70.1,30.6z"
		/>
</g>
</svg>
