<svg width="75" height="52" viewBox="0 0 75 52" fill="none" xmlns="http://www.w3.org/2000/svg">
<path d="M75 7H0V11.7065H75V7Z" fill="#FFF500"/>
<path d="M75 40.2936H0V45H75V40.2936Z" fill="#FFF500"/>
<path d="M17.4288 22.6485H19.2146C20.5286 22.6485 21.6389 22.8989 22.5457 23.3997C23.4525 23.8944 24.1403 24.5571 24.6091 25.3877C25.0841 26.2183 25.3216 27.1314 25.3216 28.1269C25.3216 29.2202 25.0625 30.1852 24.5444 31.0219C24.0262 31.8586 23.326 32.5121 22.4439 32.9824C21.5618 33.4527 20.5748 33.6878 19.483 33.6878C18.8476 33.6878 18.2246 33.5993 17.6139 33.4221C17.0032 33.2389 16.4295 32.9213 15.8928 32.4694L15.7725 32.5243V27.6139C15.7725 28.1208 15.8867 28.588 16.1149 29.0156C16.3493 29.4431 16.6824 29.7851 17.1142 30.0416C17.546 30.292 18.0642 30.4172 18.6687 30.4172C19.2547 30.4172 19.7606 30.3012 20.1862 30.0691C20.618 29.837 20.9511 29.5225 21.1855 29.1255C21.4199 28.7285 21.5371 28.2857 21.5371 27.7971C21.5371 27.2719 21.4045 26.8199 21.1393 26.4412C20.8802 26.0626 20.5317 25.7725 20.0937 25.5709C19.6557 25.3694 19.1715 25.2686 18.641 25.2686H17.4288V22.6485ZM18.3264 14.4766C19.153 14.4766 19.9364 14.5926 20.6766 14.8247C21.4169 15.0568 22.0738 15.3927 22.6475 15.8325C23.2273 16.2722 23.6807 16.8036 24.0077 17.4265C24.3408 18.0434 24.5073 18.7397 24.5073 19.5153C24.5073 20.3826 24.2853 21.2285 23.8411 22.053C23.397 22.8775 22.7524 23.5585 21.9073 24.096C21.0622 24.6334 20.0382 24.9021 18.8353 24.9021H17.4288V22.4378H18.2616C18.8785 22.4378 19.3627 22.3187 19.7143 22.0805C20.0721 21.8362 20.325 21.5369 20.4731 21.1827C20.6211 20.8223 20.6951 20.4711 20.6951 20.1291C20.6951 19.4695 20.4792 18.929 20.0474 18.5076C19.6218 18.0861 19.0481 17.8754 18.3264 17.8754C17.839 17.8754 17.4011 17.9762 17.0124 18.1778C16.63 18.3793 16.3277 18.6755 16.1057 19.0664C15.8836 19.4512 15.7725 19.9215 15.7725 20.4772V38.7723H11.9603V20.2391C11.9665 19.0603 12.2533 18.0403 12.8209 17.1792C13.3884 16.318 14.1533 15.6523 15.1156 15.182C16.0779 14.7117 17.1482 14.4766 18.3264 14.4766Z" fill="#FFF500"/>
<path d="M38.0369 24.3361V26.3169H32.2538V24.3361H38.0369ZM33.5667 22.0582H36.2301V30.9224C36.2301 31.1658 36.2676 31.3557 36.3426 31.4918C36.4177 31.6239 36.5219 31.7167 36.6552 31.7704C36.7928 31.824 36.9512 31.8509 37.1304 31.8509C37.2554 31.8509 37.3805 31.8405 37.5055 31.8199C37.6305 31.7951 37.7264 31.7766 37.7931 31.7642L38.212 33.7264C38.0786 33.7677 37.891 33.8152 37.6493 33.8688C37.4076 33.9266 37.1137 33.9617 36.7678 33.9741C36.1259 33.9988 35.5632 33.9142 35.0797 33.7203C34.6004 33.5263 34.2274 33.2251 33.9606 32.8165C33.6939 32.408 33.5626 31.8921 33.5667 31.269V22.0582Z" fill="#FFF500"/>
<path d="M44.0451 34.0298C43.0573 34.0298 42.207 33.8317 41.4943 33.4355C40.7857 33.0352 40.2397 32.4699 39.8563 31.7394C39.4728 31.0049 39.2811 30.1362 39.2811 29.1334C39.2811 28.1554 39.4728 27.297 39.8563 26.5584C40.2397 25.8197 40.7795 25.244 41.4755 24.8313C42.1757 24.4187 42.9968 24.2123 43.9388 24.2123C44.5723 24.2123 45.1621 24.3134 45.7081 24.5156C46.2583 24.7137 46.7376 25.0129 47.1461 25.4132C47.5587 25.8135 47.8797 26.3169 48.1089 26.9236C48.3381 27.5261 48.4528 28.2317 48.4528 29.0406V29.7648H40.3439V28.1306H45.9457C45.9457 27.751 45.8623 27.4147 45.6956 27.1217C45.5289 26.8287 45.2976 26.5996 45.0017 26.4346C44.7099 26.2654 44.3702 26.1808 43.9826 26.1808C43.5783 26.1808 43.2198 26.2736 42.9072 26.4593C42.5988 26.6409 42.3571 26.8864 42.182 27.1959C42.0069 27.5013 41.9173 27.8418 41.9132 28.2173V29.771C41.9132 30.2414 42.0007 30.6479 42.1757 30.9904C42.355 31.333 42.6071 31.5971 42.9322 31.7828C43.2573 31.9685 43.6429 32.0613 44.0889 32.0613C44.3848 32.0613 44.6557 32.0201 44.9016 31.9375C45.1475 31.855 45.358 31.7312 45.5331 31.5661C45.7081 31.401 45.8415 31.1988 45.9332 30.9595L48.3965 31.1204C48.2714 31.7064 48.0151 32.2181 47.6275 32.6556C47.244 33.0889 46.748 33.4273 46.1395 33.6707C45.5352 33.9101 44.837 34.0298 44.0451 34.0298Z" fill="#FFF500"/>
<path d="M58.1809 27.0474L55.7426 27.1959C55.7009 26.9896 55.6113 26.8039 55.4738 26.6388C55.3362 26.4696 55.1549 26.3355 54.9298 26.2365C54.7089 26.1333 54.4443 26.0817 54.1358 26.0817C53.7232 26.0817 53.3752 26.1684 53.0917 26.3417C52.8083 26.5109 52.6666 26.7379 52.6666 27.0226C52.6666 27.2496 52.7583 27.4415 52.9417 27.5983C53.1251 27.7551 53.4398 27.881 53.8857 27.9759L55.6238 28.3225C56.5574 28.5124 57.2535 28.8177 57.712 29.2387C58.1705 29.6596 58.3997 30.2126 58.3997 30.8976C58.3997 31.5207 58.2142 32.0675 57.8433 32.538C57.4765 33.0084 56.9721 33.3757 56.3303 33.6398C55.6926 33.8998 54.9569 34.0298 54.1233 34.0298C52.8521 34.0298 51.8393 33.7677 51.0848 33.2436C50.3346 32.7154 49.8949 31.9974 49.7657 31.0895L52.3853 30.9533C52.4645 31.3371 52.6562 31.6301 52.9604 31.8323C53.2647 32.0304 53.6544 32.1294 54.1296 32.1294C54.5964 32.1294 54.9715 32.0407 55.2549 31.8632C55.5425 31.6817 55.6884 31.4485 55.6926 31.1638C55.6884 30.9244 55.5863 30.7284 55.3862 30.5757C55.1862 30.4189 54.8777 30.2992 54.4609 30.2167L52.7979 29.8886C51.8601 29.7029 51.162 29.381 50.7035 28.923C50.2492 28.4649 50.022 27.881 50.022 27.1712C50.022 26.5604 50.1887 26.0343 50.5222 25.5927C50.8598 25.1512 51.3328 24.8107 51.9414 24.5714C52.5541 24.332 53.271 24.2123 54.0921 24.2123C55.3049 24.2123 56.2594 24.4661 56.9555 24.9737C57.6557 25.4813 58.0642 26.1725 58.1809 27.0474Z" fill="#FFF500"/>
<path d="M65.1847 24.3361V26.3169H59.4016V24.3361H65.1847ZM60.7145 22.0582H63.3778V30.9224C63.3778 31.1658 63.4154 31.3557 63.4904 31.4918C63.5654 31.6239 63.6696 31.7167 63.803 31.7704C63.9405 31.824 64.0989 31.8509 64.2781 31.8509C64.4032 31.8509 64.5282 31.8405 64.6533 31.8199C64.7783 31.7951 64.8742 31.7766 64.9408 31.7642L65.3597 33.7264C65.2264 33.7677 65.0388 33.8152 64.7971 33.8688C64.5553 33.9266 64.2615 33.9617 63.9155 33.9741C63.2736 33.9988 62.711 33.9142 62.2275 33.7203C61.7482 33.5263 61.3751 33.2251 61.1084 32.8165C60.8416 32.408 60.7103 31.8921 60.7145 31.269V22.0582Z" fill="#FFF500"/>
</svg>
