<?xml version="1.0" encoding="utf-8"?>
<!-- Generator: Adobe Illustrator 27.9.0, SVG Export Plug-In . SVG Version: 6.00 Build 0)  -->
<svg version="1.1" id="圖層_1" xmlns="http://www.w3.org/2000/svg" xmlns:xlink="http://www.w3.org/1999/xlink" x="0px" y="0px"
	 viewBox="0 0 100 60" style="enable-background:new 0 0 100 60;" xml:space="preserve">
<style type="text/css">
	.st0{fill:#FFFFFF;}
</style>
<g>
	<path class="st0" d="M49.1,39.5c-11.2,0-11.5,17,0,17C60.6,56.5,60.3,39.5,49.1,39.5z M49.1,54.2c-8.2-0.1-8.2-12.4,0-12.5
		C57.3,41.9,57.3,54.1,49.1,54.2z"/>
	<path class="st0" d="M76,16.5c-0.6,0-1.2,0.5-1.2,1.2v8.5c-1.3-1.7-3.4-2.9-6.2-2.9c-5.6,0-8.5,4.3-8.5,8.5c0,4.2,2.9,8.5,8.5,8.5
		c2.8,0,4.9-1.2,6.2-2.9v1.4c0,0.6,0.5,1.2,1.2,1.2c0.6,0,1.2-0.5,1.2-1.2V17.6C77.1,17,76.6,16.5,76,16.5z M68.6,38
		c-4.1-0.1-6.2-3.2-6.2-6.3c0-3.1,2.1-6.2,6.2-6.3c4.1,0.1,6.2,3.2,6.2,6.3C74.8,34.9,72.7,38,68.6,38z"/>
	<path class="st0" d="M98.8,3.8c-0.6,0-1.2,0.5-1.2,1.2v1.4c-1.3-1.7-3.4-2.8-6.2-2.8C85.9,3.5,83,7.8,83,12c0,4.2,2.9,8.5,8.5,8.5
		c2.8,0,4.8-1.2,6.2-2.8v1.4c0,0.6,0.5,1.2,1.2,1.2s1.2-0.5,1.2-1.2V5C100,4.3,99.5,3.8,98.8,3.8z M91.5,18.3
		c-4.1-0.1-6.2-3.2-6.2-6.3c0-3.1,2.1-6.2,6.2-6.3c4.1,0.1,6.2,3.2,6.2,6.3C97.7,15.1,95.6,18.2,91.5,18.3z"/>
	<path class="st0" d="M23.2,39.7c-3.6,0-6,1.7-7.3,4.1c-1.3-2.3-3.8-4.1-7.3-4.1c-2.6,0-4.8,1.1-6.2,3v-1.4c0-0.6-0.5-1.2-1.2-1.2
		c-0.6,0-1.2,0.5-1.2,1.2v5.6v1.4v7.1c0,0.6,0.5,1.2,1.2,1.2c0.6,0,1.2-0.5,1.2-1.2c0-1.4-0.1-7,0.1-9c0.1-0.4,0.2-0.7,0.2-0.9
		c0.9-2.1,3-3.4,5.8-3.5c4.1,0.1,6.2,3.2,6.2,6.3v7.1c0,0.6,0.5,1.2,1.2,1.2c0.6,0,1.2-0.5,1.2-1.2v-7.1h0c0-3.1,2.1-6.2,6.2-6.3
		c2.7,0,4.4,1.3,5.4,3c0.5,1,0.8,2.4,0.8,4l0,1.7v4.7c0,0.6,0.5,1.2,1.2,1.2c0.6,0,1.2-0.5,1.2-1.2v-4.7v-2.4
		C31.7,43.3,28.4,39.8,23.2,39.7z"/>
</g>
</svg>
