<?xml version="1.0" encoding="utf-8"?>
<!-- Generator: Adobe Illustrator 27.9.0, SVG Export Plug-In . SVG Version: 6.00 Build 0)  -->
<svg version="1.1" id="圖層_1" xmlns="http://www.w3.org/2000/svg" xmlns:xlink="http://www.w3.org/1999/xlink" x="0px" y="0px"
	 viewBox="0 0 36 72" style="enable-background:new 0 0 36 72;" xml:space="preserve">
<style type="text/css">
	.st0{fill:#FFFFFF;}
	.st1{fill:#F4EA5A;}
</style>
<path class="st0" d="M12.1,25.6c0,0,11.8,1.7,16.8,6.7h1.7c0.9,0,1.7-0.8,1.7-1.7V20.4c1.5-0.4,2.5-1.7,2.5-3.3s-1.1-2.9-2.5-3.3
	V3.7c0-0.9-0.8-1.7-1.7-1.7H29c-5.1,5.1-16.8,6.7-16.8,6.7H5.4C3.5,8.7,2,10.2,2,12.1v10.1c0,1.9,1.5,3.4,3.4,3.4h1.7L8.8,34h3.4
	V25.6z M15.5,11.5c1.2-0.2,2.6-0.6,4.1-1C22.4,9.7,26,8.4,29,6.3V28c-2.9-2-6.5-3.3-9.4-4.2c-1.5-0.5-3-0.8-4.1-1V11.5z M5.4,12.1
	h6.7v10.1H5.4V12.1z"/>
<path class="st1" d="M12.1,61.6c0,0,11.8,1.7,16.8,6.7h1.7c0.9,0,1.7-0.8,1.7-1.7V56.4c1.5-0.4,2.5-1.7,2.5-3.3
	c0-1.6-1.1-2.9-2.5-3.3V39.7c0-0.9-0.8-1.7-1.7-1.7H29c-5.1,5.1-16.8,6.7-16.8,6.7H5.4c-1.9,0-3.4,1.5-3.4,3.4v10.1
	c0,1.9,1.5,3.4,3.4,3.4h1.7L8.8,70h3.4V61.6z M15.5,47.5c1.2-0.2,2.6-0.6,4.1-1c2.8-0.8,6.4-2.1,9.4-4.2V64c-2.9-2-6.5-3.3-9.4-4.2
	c-1.5-0.5-3-0.8-4.1-1V47.5z M5.4,48.1h6.7v10.1H5.4V48.1z"/>
</svg>
