<svg width="20" height="20" viewBox="0 0 20 20" fill="none" xmlns="http://www.w3.org/2000/svg">
<rect width="20" height="20" rx="10" fill="#1D0C1C"/>
<g clip-path="url(#clip0_56_1117)">
<path fill-rule="evenodd" clip-rule="evenodd" d="M9.06117 8.5121V7.96698C8.86236 7.94133 8.66019 7.92529 8.46138 7.92529C6.00155 7.92529 4 9.83001 4 12.1708C4 13.6074 4.7548 14.8772 5.90384 15.6468C5.13219 14.8644 4.70425 13.8286 4.70425 12.7576C4.70425 10.4489 6.64852 8.56982 9.06117 8.51531" fill="#00F2EA"/>
<path fill-rule="evenodd" clip-rule="evenodd" d="M9.16565 14.6945C10.2642 14.6945 11.1571 13.8639 11.1975 12.8282V3.58681H12.9767C12.9396 3.39441 12.9194 3.19881 12.9194 3H10.4967V12.2446C10.4528 13.2803 9.55653 14.1109 8.45803 14.1109C8.12781 14.1109 7.80433 14.0339 7.51117 13.8896C7.89194 14.3962 8.50858 14.6977 9.16228 14.6977M16.2924 6.72286V6.2098C15.6387 6.2098 15.0018 6.03023 14.456 5.69033C14.9344 6.21622 15.578 6.57856 16.2924 6.72286Z" fill="#00F2EA"/>
<path fill-rule="evenodd" clip-rule="evenodd" d="M14.4559 5.69032C13.9201 5.10672 13.627 4.35958 13.627 3.58679H12.9766C13.1451 4.44937 13.6809 5.21254 14.4559 5.69032ZM8.46135 10.2309C7.3359 10.2309 6.4261 11.0998 6.42273 12.1709C6.42273 12.8923 6.84393 13.5529 7.51449 13.8864C7.26513 13.5561 7.13035 13.1617 7.13035 12.7545C7.13035 11.6834 8.04352 10.8177 9.16897 10.8145C9.37789 10.8145 9.58006 10.8465 9.76876 10.9042V8.5506C9.56996 8.52495 9.36778 8.50892 9.16897 8.50892C9.13527 8.50892 9.09821 8.50892 9.06451 8.50892V10.3174C8.86907 10.2597 8.6669 10.2277 8.46472 10.2277" fill="#FF004F"/>
<path fill-rule="evenodd" clip-rule="evenodd" d="M16.2924 6.7229V8.51539C15.0355 8.51539 13.8696 8.1338 12.9194 7.48286V12.1709C12.9194 14.5117 10.9178 16.4164 8.45799 16.4164C7.50776 16.4164 6.62492 16.1311 5.90045 15.6469C6.74286 16.5094 7.92559 17.0032 9.16225 17C11.6221 17 13.6236 15.0953 13.6236 12.7545V8.06646C14.6076 8.73985 15.7869 9.09899 16.9966 9.09899V6.79345C16.754 6.79345 16.5181 6.76779 16.289 6.7229" fill="#FF004F"/>
<path fill-rule="evenodd" clip-rule="evenodd" d="M12.9227 12.1709V7.48281C13.9067 8.15619 15.086 8.51533 16.2957 8.51533V6.72284C15.5814 6.57534 14.9378 6.21299 14.4593 5.69032C13.6843 5.21254 13.1519 4.44937 12.98 3.58679H11.2042V12.8282C11.1604 13.8639 10.2641 14.6944 9.1656 14.6944C8.5119 14.6944 7.89526 14.393 7.51449 13.8864C6.84393 13.5529 6.42273 12.8923 6.42273 12.1709C6.42273 11.0998 7.3359 10.2341 8.46135 10.2309C8.67027 10.2309 8.87245 10.2629 9.06114 10.3206V8.51212C6.6485 8.56664 4.70422 10.4489 4.70422 12.7545C4.70422 13.8703 5.15912 14.8868 5.90381 15.6436C6.65186 16.1438 7.54481 16.4132 8.46135 16.4132C10.9212 16.4132 12.9227 14.5085 12.9227 12.1676" fill="white"/>
</g>
<defs>
<clipPath id="clip0_56_1117">
<rect width="13" height="14" fill="white" transform="translate(4 3)"/>
</clipPath>
</defs>
</svg>
